<svg xmlns="http://www.w3.org/2000/svg" xmlns:xlink="http://www.w3.org/1999/xlink" xmlns:inkscape="http://www.inkscape.org/namespaces/inkscape" version="1.1" width="30.026978" height="10.063416" viewBox="0 0 30.026978 10.063416">
<defs>
<clipPath id="clip_1">
<path transform="matrix(1,0,0,-1,-131.59203,107.99097)" d="M131.59203 97.92755H161.619V107.99097H131.59203Z" clip-rule="evenodd"/>
</clipPath>
<path id="font_2_4" d="M.20698548-1.4613037C.31399537-1.4472962 .3869934-1.3312683 .41099549-1.2522583 .43899537-1.1612396 .43899537-1.0652313 .43899537-.97021487 .43899537-.6211548 .43099977-.45611573 .43099977-.3981018 .43099977-.23408509 .46998597-.000030517579 .548996 .0009765625V.032974245C.35299684 .032974245 .33099366-.18806458 .33099366-.36010743 .33099366-.61013796 .34298707-.7831726 .34298707-1.0572205 .34298707-1.2652588 .2669983-1.4332886 .099990848-1.4462891V-1.4763031C.2669983-1.4893036 .34298707-1.6572723 .34298707-1.8652344 .34298707-2.139206 .33099366-2.3121796 .33099366-2.5621339 .33099366-2.7341157 .35299684-2.9550782 .548996-2.9550782V-2.9230805C.46998597-2.9220887 .43099977-2.6881257 .43099977-2.5241395 .43099977-2.466156 .43899537-2.301178 .43899537-1.9522247 .43899537-1.8572388 .43899537-1.761261 .41099549-1.6702728 .3869934-1.5912781 .31399537-1.475296 .20698548-1.4613037Z"/>
</defs>
<g>
<g clip-path="url(#clip_1)">
<use data-text="&#xfffd;" xlink:href="#font_2_4" transform="matrix(8.249,0,0,-8.249,.80000308,1.5299606)"/>
<use data-text="&#xfffd;" xlink:href="#font_2_4" transform="matrix(8.249,0,0,-8.249,6.7310335,1.5299606)"/>
<path transform="matrix(1,0,0,-1,13.538971,1.3999634)" stroke-width=".398" stroke-linecap="butt" stroke-miterlimit="10" stroke-linejoin="miter" fill="none" stroke="#000000" d="M0 0H15.688"/>
<path transform="matrix(1,0,0,-1,13.737976,25.746964)" stroke-width=".398" stroke-linecap="butt" stroke-miterlimit="10" stroke-linejoin="miter" fill="none" stroke="#000000" d="M0 0V24.347"/>
<path transform="matrix(1,0,0,-1,29.026978,25.746964)" stroke-width=".398" stroke-linecap="butt" stroke-miterlimit="10" stroke-linejoin="miter" fill="none" stroke="#000000" d="M0 0V24.347"/>
<path transform="matrix(1,0,0,-1,32.62497,25.863968)" stroke-width=".398" stroke-linecap="butt" stroke-miterlimit="10" stroke-linejoin="miter" fill="none" stroke="#000000" d="M0 0V24.582"/>
<path transform="matrix(1,0,0,-1,47.914979,25.863968)" stroke-width=".398" stroke-linecap="butt" stroke-miterlimit="10" stroke-linejoin="miter" fill="none" stroke="#000000" d="M0 0V24.582"/>
<path transform="matrix(1,0,0,-1,51.51198,25.746964)" stroke-width=".398" stroke-linecap="butt" stroke-miterlimit="10" stroke-linejoin="miter" fill="none" stroke="#000000" d="M0 0V24.347"/>
<path transform="matrix(1,0,0,-1,65.93898,25.746964)" stroke-width=".398" stroke-linecap="butt" stroke-miterlimit="10" stroke-linejoin="miter" fill="none" stroke="#000000" d="M0 0V24.347"/>
<path transform="matrix(1,0,0,-1,84.02797,25.462967)" stroke-width=".398" stroke-linecap="butt" stroke-miterlimit="10" stroke-linejoin="miter" fill="none" stroke="#000000" d="M0 0V23.779"/>
<path transform="matrix(1,0,0,-1,99.31798,25.462967)" stroke-width=".398" stroke-linecap="butt" stroke-miterlimit="10" stroke-linejoin="miter" fill="none" stroke="#000000" d="M0 0V23.779"/>
<path transform="matrix(1,0,0,-1,104.448978,25.462967)" stroke-width=".398" stroke-linecap="butt" stroke-miterlimit="10" stroke-linejoin="miter" fill="none" stroke="#000000" d="M0 0V23.779"/>
<path transform="matrix(1,0,0,-1,118.87598,25.462967)" stroke-width=".398" stroke-linecap="butt" stroke-miterlimit="10" stroke-linejoin="miter" fill="none" stroke="#000000" d="M0 0V23.779"/>
<path transform="matrix(1,0,0,-1,124.00798,25.52697)" stroke-width=".398" stroke-linecap="butt" stroke-miterlimit="10" stroke-linejoin="miter" fill="none" stroke="#000000" d="M0 0V23.908"/>
<path transform="matrix(1,0,0,-1,139.03197,25.52697)" stroke-width=".398" stroke-linecap="butt" stroke-miterlimit="10" stroke-linejoin="miter" fill="none" stroke="#000000" d="M0 0V23.908"/>
<path transform="matrix(1,0,0,-1,157.12197,25.92897)" stroke-width=".398" stroke-linecap="butt" stroke-miterlimit="10" stroke-linejoin="miter" fill="none" stroke="#000000" d="M0 0V24.711"/>
<path transform="matrix(1,0,0,-1,172.14699,25.92897)" stroke-width=".398" stroke-linecap="butt" stroke-miterlimit="10" stroke-linejoin="miter" fill="none" stroke="#000000" d="M0 0V24.711"/>
<path transform="matrix(1,0,0,-1,177.27797,25.810967)" stroke-width=".398" stroke-linecap="butt" stroke-miterlimit="10" stroke-linejoin="miter" fill="none" stroke="#000000" d="M0 0V24.476"/>
<path transform="matrix(1,0,0,-1,192.30297,25.810967)" stroke-width=".398" stroke-linecap="butt" stroke-miterlimit="10" stroke-linejoin="miter" fill="none" stroke="#000000" d="M0 0V24.476"/>
<path transform="matrix(1,0,0,-1,197.43398,25.52697)" stroke-width=".398" stroke-linecap="butt" stroke-miterlimit="10" stroke-linejoin="miter" fill="none" stroke="#000000" d="M0 0V23.908"/>
<path transform="matrix(1,0,0,-1,212.45897,25.52697)" stroke-width=".398" stroke-linecap="butt" stroke-miterlimit="10" stroke-linejoin="miter" fill="none" stroke="#000000" d="M0 0V23.908"/>
</g>
</g>
</svg>
