<svg xmlns="http://www.w3.org/2000/svg" xmlns:xlink="http://www.w3.org/1999/xlink" xmlns:inkscape="http://www.inkscape.org/namespaces/inkscape" version="1.1" width="27.891999" height="9.848999" viewBox="0 0 27.891999 9.848999">
<defs>
<clipPath id="clip_1">
<path transform="matrix(1,0,0,-1,-131.592,145.38953)" d="M131.592 135.54053H159.484V145.38953H131.592Z" clip-rule="evenodd"/>
</clipPath>
<path id="font_2_4" d="M.20698548-1.4613037C.31399537-1.4472962 .3869934-1.3312683 .41099549-1.2522583 .43899537-1.1612396 .43899537-1.0652313 .43899537-.97021487 .43899537-.6211548 .43099977-.45611573 .43099977-.3981018 .43099977-.23408509 .46998597-.000030517579 .548996 .0009765625V.032974245C.35299684 .032974245 .33099366-.18806458 .33099366-.36010743 .33099366-.61013796 .34298707-.7831726 .34298707-1.0572205 .34298707-1.2652588 .2669983-1.4332886 .099990848-1.4462891V-1.4763031C.2669983-1.4893036 .34298707-1.6572723 .34298707-1.8652344 .34298707-2.139206 .33099366-2.3121796 .33099366-2.5621339 .33099366-2.7341157 .35299684-2.9550782 .548996-2.9550782V-2.9230805C.46998597-2.9220887 .43099977-2.6881257 .43099977-2.5241395 .43099977-2.466156 .43899537-2.301178 .43899537-1.9522247 .43899537-1.8572388 .43899537-1.761261 .41099549-1.6702728 .3869934-1.5912781 .31399537-1.475296 .20698548-1.4613037Z"/>
</defs>
<g>
<g clip-path="url(#clip_1)">
<use data-text="&#xfffd;" xlink:href="#font_2_4" transform="matrix(8.249,0,0,-8.249,.80000308,1.3155212)"/>
<use data-text="&#xfffd;" xlink:href="#font_2_4" transform="matrix(8.249,0,0,-8.249,6.7310335,1.3155212)"/>
<path transform="matrix(1,0,0,-1,13.539001,1.5685272)" stroke-width=".398" stroke-linecap="butt" stroke-miterlimit="10" stroke-linejoin="miter" fill="none" stroke="#000000" d="M0 0H13.553"/>
<path transform="matrix(1,0,0,-1,13.738007,25.150528)" stroke-width=".398" stroke-linecap="butt" stroke-miterlimit="10" stroke-linejoin="miter" fill="none" stroke="#000000" d="M0 0V23.583"/>
<path transform="matrix(1,0,0,-1,26.893006,25.150528)" stroke-width=".398" stroke-linecap="butt" stroke-miterlimit="10" stroke-linejoin="miter" fill="none" stroke="#000000" d="M0 0V23.583"/>
<path transform="matrix(1,0,0,-1,30.490006,25.650528)" stroke-width=".398" stroke-linecap="butt" stroke-miterlimit="10" stroke-linejoin="miter" fill="none" stroke="#000000" d="M0 0V24.582"/>
<path transform="matrix(1,0,0,-1,45.78,25.650528)" stroke-width=".398" stroke-linecap="butt" stroke-miterlimit="10" stroke-linejoin="miter" fill="none" stroke="#000000" d="M0 0V24.582"/>
<path transform="matrix(1,0,0,-1,49.377,25.150528)" stroke-width=".398" stroke-linecap="butt" stroke-miterlimit="10" stroke-linejoin="miter" fill="none" stroke="#000000" d="M0 0V23.583"/>
<path transform="matrix(1,0,0,-1,62.531999,25.150528)" stroke-width=".398" stroke-linecap="butt" stroke-miterlimit="10" stroke-linejoin="miter" fill="none" stroke="#000000" d="M0 0V23.583"/>
<path transform="matrix(1,0,0,-1,80.62201,25.249527)" stroke-width=".398" stroke-linecap="butt" stroke-miterlimit="10" stroke-linejoin="miter" fill="none" stroke="#000000" d="M0 0V23.779"/>
<path transform="matrix(1,0,0,-1,95.912,25.249527)" stroke-width=".398" stroke-linecap="butt" stroke-miterlimit="10" stroke-linejoin="miter" fill="none" stroke="#000000" d="M0 0V23.779"/>
<path transform="matrix(1,0,0,-1,101.043,25.249527)" stroke-width=".398" stroke-linecap="butt" stroke-miterlimit="10" stroke-linejoin="miter" fill="none" stroke="#000000" d="M0 0V23.779"/>
<path transform="matrix(1,0,0,-1,115.47,25.249527)" stroke-width=".398" stroke-linecap="butt" stroke-miterlimit="10" stroke-linejoin="miter" fill="none" stroke="#000000" d="M0 0V23.779"/>
<path transform="matrix(1,0,0,-1,120.601,25.31353)" stroke-width=".398" stroke-linecap="butt" stroke-miterlimit="10" stroke-linejoin="miter" fill="none" stroke="#000000" d="M0 0V23.908"/>
<path transform="matrix(1,0,0,-1,135.62599,25.31353)" stroke-width=".398" stroke-linecap="butt" stroke-miterlimit="10" stroke-linejoin="miter" fill="none" stroke="#000000" d="M0 0V23.908"/>
<path transform="matrix(1,0,0,-1,153.71602,25.714524)" stroke-width=".398" stroke-linecap="butt" stroke-miterlimit="10" stroke-linejoin="miter" fill="none" stroke="#000000" d="M0 0V24.711"/>
<path transform="matrix(1,0,0,-1,168.748,25.714524)" stroke-width=".398" stroke-linecap="butt" stroke-miterlimit="10" stroke-linejoin="miter" fill="none" stroke="#000000" d="M0 0V24.711"/>
<path transform="matrix(1,0,0,-1,173.87999,25.552529)" stroke-width=".398" stroke-linecap="butt" stroke-miterlimit="10" stroke-linejoin="miter" fill="none" stroke="#000000" d="M0 0V24.385"/>
<path transform="matrix(1,0,0,-1,187.03502,25.552529)" stroke-width=".398" stroke-linecap="butt" stroke-miterlimit="10" stroke-linejoin="miter" fill="none" stroke="#000000" d="M0 0V24.385"/>
<path transform="matrix(1,0,0,-1,192.166,25.150528)" stroke-width=".398" stroke-linecap="butt" stroke-miterlimit="10" stroke-linejoin="miter" fill="none" stroke="#000000" d="M0 0V23.583"/>
<path transform="matrix(1,0,0,-1,205.321,25.150528)" stroke-width=".398" stroke-linecap="butt" stroke-miterlimit="10" stroke-linejoin="miter" fill="none" stroke="#000000" d="M0 0V23.583"/>
</g>
</g>
</svg>
