<svg xmlns="http://www.w3.org/2000/svg" xmlns:xlink="http://www.w3.org/1999/xlink" xmlns:inkscape="http://www.inkscape.org/namespaces/inkscape" version="1.1" width="7.937027" height="9.207489" viewBox="0 0 7.937027 9.207489">
<defs>
<clipPath id="clip_1">
<path transform="matrix(1,0,0,-1,-249.066,461.2025)" d="M249.066 451.99504H257.00303V461.2025H249.066Z" clip-rule="evenodd"/>
</clipPath>
<path id="font_2_27" d="M.397995-.82902529 .22499085-.43717958C.22099304-.42918397 .21899414-.42318727 .21199036-.42318727 .20899964-.42318727 .20799256-.42419435 .19799805-.43118287L.09700012-.50315859 .11099243-.52215579C.1269989-.51815798 .14299011-.51416018 .15299988-.51416018 .15499878-.51416018 .1559906-.51416018 .1559906-.515152L.35299684-.95996096H.38198854C.38198854-.95996096 .8470001 .0016326904 .84999087 .0026245118 .8549957 .013626099 .8529968 .014633179 .8529968 .019622803 .8529968 .03062439 .84999087 .057617189 .83799746 .057617189H.82899478L.397995-.82902529Z"/>
</defs>
<g clip-path="url(#clip_1)">
<use data-text="&#xfffd;" xlink:href="#font_2_27" transform="matrix(7.6075,0,0,-7.6075,.80000308,8.407501)"/>
<path transform="matrix(1,0,0,-1,7.134018,8.188507)" stroke-width=".438" stroke-linecap="butt" stroke-miterlimit="10" stroke-linejoin="miter" fill="none" stroke="#000000" d="M0 0H4.276"/>
</g>
</svg>
