<svg xmlns="http://www.w3.org/2000/svg" xmlns:xlink="http://www.w3.org/1999/xlink" xmlns:inkscape="http://www.inkscape.org/namespaces/inkscape" version="1.1" width="8.9338" height="17.182374" viewBox="0 0 8.9338 17.182374">
<defs>
<clipPath id="clip_1">
<path transform="matrix(1,0,0,-1,-93.558208,319.66868)" d="M93.558208 302.4863H102.492008V319.66868H93.558208Z" clip-rule="evenodd"/>
</clipPath>
<path id="font_2_1" d="M.4249878 .10021973 .40499879 .110198978C.35198976 .06524658 .29599 .045272829 .22698975 .045272829 .17098999 .045272829 .13899231 .08023071 .13899231 .1251831 .13899231 .15216065 .16799927 .25305177 .23699951 .25305177 .28799439 .25305177 .2829895 .24305725 .31599427 .24305725 .33499146 .24305725 .34999085 .25605775 .34999085 .28305055 .34999085 .29605104 .34098817 .29904176 .32899476 .29904176 .30799867 .29904176 .27398683 .2890625 .24398804 .2890625 .20399475 .2890625 .19299317 .31404115 .19299317 .34301759 .19299317 .39198304 .22399903 .46594239 .2999878 .46594239 .35798646 .46594239 .37399293 .46295167 .3849945 .41497804 .3880005 .40197755 .39898683 .3869934 .4149933 .3869934 .43998719 .3869934 .47599793 .41197206 .47599793 .44496156 .47599793 .48693849 .38398744 .5019531 .32398988 .5019531 .23599243 .50094607 .10699463 .46694947 .10699463 .34602357 .10699463 .31004334 .125 .28704835 .16999817 .27404786 .10998535 .26506043 .036987306 .18312073 .036987306 .10421753 .036987306 .026275635 .13398743-.01171875 .19799805-.01171875 .2659912-.01171875 .35899354 .0022735596 .4249878 .10021973Z"/>
<path id="font_3_18" d="M.34599305 .3677826C.3600006 .37278749 .3619995 .37278749 .36898805 .37579347 .43899537 .40475465 .47898866 .46063233 .47898866 .5317688 .47898866 .6360321 .39898683 .70410159 .2749939 .70410159 .1579895 .70410159 .068984989 .635025 .068984989 .543808 .068984989 .5027008 .09700012 .4736328 .1349945 .4736328 .16999817 .4736328 .19400025 .49768067 .19400025 .53378298 .19400025 .5548248 .18598938 .5688629 .16299439 .5848999 .15299988 .59191897 .1499939 .5969391 .1499939 .60295107 .1499939 .63101199 .20899964 .66108706 .2649994 .66108706 .33699037 .66108706 .375 .61598208 .375 .5307617 .375 .43766786 .33699037 .38879396 .2649994 .38879396 .2559967 .38879396 .23999024 .38978578 .22499085 .3907776 .21699524 .39178468 .20899964 .39178468 .20298767 .39178468 .18199158 .39178468 .17098999 .38278199 .17098999 .36479188 .17098999 .34779359 .18199158 .33979798 .20199585 .33979798 .20498657 .33979798 .21299744 .33979798 .22599793 .3407898 .2639923 .34179688 .2649994 .34179688 .272995 .34179688 .34700013 .34179688 .3869934 .2888794 .3869934 .19006348 .3869934 .0872345 .33599855 .02835083 .24699402 .02835083 .18399048 .02835083 .115997318 .062286378 .115997318 .0932312 .115997318 .10221863 .117996219 .10420227 .13798523 .1151886 .1659851 .13215637 .1769867 .14912415 .1769867 .17408753 .1769867 .21002198 .1499939 .236969 .11299133 .236969 .070999149 .236969 .041992189 .20103455 .041992189 .14912415 .041992189 .05230713 .1309967-.0146484379 .25898744-.0146484379 .40299989-.0146484379 .49798585 .0652771 .49798585 .18806458 .49798585 .28189088 .44898988 .3387909 .34599305 .3677826Z"/>
</defs>
<g clip-path="url(#clip_1)">
<use data-text="&#x03b5;" xlink:href="#font_2_1" transform="matrix(7.4421,0,0,-7.4421,4.07679,6.753662)"/>
<path transform="matrix(1,0,0,-1,3.8577958,8.2256779)" stroke-width=".582" stroke-linecap="butt" stroke-miterlimit="10" stroke-linejoin="miter" fill="none" stroke="#000000" d="M0 0H4.276"/>
<use data-text="3" xlink:href="#font_3_18" transform="matrix(7.6901,0,0,-7.6901,3.8577958,14.814667)"/>
</g>
</svg>
