<svg xmlns="http://www.w3.org/2000/svg" xmlns:xlink="http://www.w3.org/1999/xlink" xmlns:inkscape="http://www.inkscape.org/namespaces/inkscape" version="1.1" width="25.147309" height="12.58667" viewBox="0 0 25.147309 12.58667">
<defs>
<clipPath id="clip_1">
<path transform="matrix(1,0,0,-1,-416.903,183.93872)" d="M416.903 171.35205H442.05033V183.93872H416.903Z" clip-rule="evenodd"/>
</clipPath>
<path id="font_2_16" d="M.32199098 .70399478C.28799439 .6629944 .19599915 .6319885 .10398865 .6299896V.58699038H.19198609C.25 .58699038 .2539978 .58299258 .2539978 .5239868V.12298584 .09399414C.2539978 .051986696 .24499512 .04699707 .16499329 .04699707H.099990848V0H.49598695V.04699707H.44099427C.3880005 .04699707 .3659973 .050994874 .35798646 .06098938 .35099793 .067993167 .35099793 .067993167 .35099793 .12298584V.5359955C.35099793 .58499148 .35299684 .6329956 .35798646 .70399478H.32199098Z"/>
<path id="font_3_42" d="M.04399109-.0036773682C.19999695-.122680667 .23498535-.613678 .23498535-1.1596832 .23498535-1.7187042 .19699097-2.1977082 .04399109-2.3157044V-2.3457032C.269989-2.2737122 .32299806-1.8197022 .32299806-1.1596832 .32299806-.485672 .2619934-.05166626 .04399109 .02734375V-.0036773682Z"/>
</defs>
<g>
<g clip-path="url(#clip_1)">
<use data-text="1" xlink:href="#font_2_16" transform="matrix(8.3387,0,0,-8.3387,7.8139955,7.4387056)"/>
<path transform="matrix(1,0,0,-1,.7999878,11.186722)" stroke-width=".478" stroke-linecap="butt" stroke-miterlimit="10" stroke-linejoin="miter" fill="none" stroke="#000000" d="M0 0H18.665"/>
<use data-text="&#xfffd;" xlink:href="#font_3_42" transform="matrix(8.249,0,0,-8.249,20.660004,1.6177063)"/>
</g>
</g>
</svg>
