<svg xmlns="http://www.w3.org/2000/svg" xmlns:xlink="http://www.w3.org/1999/xlink" xmlns:inkscape="http://www.inkscape.org/namespaces/inkscape" version="1.1" width="253.10889" height="24.33252" viewBox="0 0 253.10889 24.33252">
<defs>
<clipPath id="clip_1">
<path transform="matrix(1,0,0,-1,-139.96103,343.51753)" d="M139.96103 319.185H393.06993V343.51753H139.96103Z" clip-rule="evenodd"/>
</clipPath>
<path id="font_2_2" d="M.24398804-2.9589844H.44699098V-2.92099C.32499696-2.9129945 .31900025-2.9019929 .31900025-2.7119904V-.19998169C.31900025-.009979248 .32499696-.004989624 .44699098 .0030059815V.041015626H.24398804V-2.9589844Z"/>
<path id="font_2_45" d="M.44299317-2.9181977C.2829895-2.7681733 .22799683-2.166092 .22799683-1.4599762 .22799683-.770874 .27999879-.15177918 .44299317-.0017547608V.030273438C.21398926-.06877136 .12998963-.6108551 .12998963-1.4599762 .12998963-2.293106 .20599365-2.859192 .44299317-2.9501954V-2.9181977Z"/>
<path id="font_3_39" d="M.22898865 .46972657 .04798889 .4547119 .04399109 .41871644H.067993167C.10899353 .41871644 .125 .40971376 .125 .38775636 .125 .37876893 .12199402 .36579896 .115997318 .3438263L.01399231 .00035095216H.100997928L.14199829 .13917542C.16799927 .22602844 .17999268 .25398255 .21598816 .30688478 .25898744 .37078858 .31199647 .40971376 .35499574 .40971376 .37799073 .40971376 .394989 .39175416 .394989 .36878968 .394989 .3518219 .3899994 .32984925 .37998963 .29890443L.32699586 .14317322C.31399537 .10423279 .30899049 .08126831 .30899049 .059310914 .30899049 .017349244 .33898927-.0146484379 .3789978-.0146484379 .44198609-.0146484379 .5059967 .038345338 .56199648 .13517761L.5329895 .15614319C.48298646 .07727051 .43998719 .036346437 .40899659 .036346437 .39898683 .036346437 .3909912 .044326784 .3909912 .05531311 .3909912 .06629944 .3939972 .07827759 .4099884 .12220764L.45700074 .259964C.47299195 .30490113 .48098756 .3438263 .48098756 .37278749 .48098756 .4257202 .43798829 .46972657 .3849945 .46972657 .32598878 .46972657 .2669983 .42671205 .19999695 .33483888L.22898865 .46972657Z"/>
<path id="font_4_31" d="M.6349945 .2529297V.31092835H.084991458V.2529297H.6349945Z"/>
<path id="font_5_16" d="M.32199098 .70399478C.28799439 .6629944 .19599915 .6319885 .10398865 .6299896V.58699038H.19198609C.25 .58699038 .2539978 .58299258 .2539978 .5239868V.12298584 .09399414C.2539978 .051986696 .24499512 .04699707 .16499329 .04699707H.099990848V0H.49598695V.04699707H.44099427C.3880005 .04699707 .3659973 .050994874 .35798646 .06098938 .35099793 .067993167 .35099793 .067993167 .35099793 .12298584V.5359955C.35099793 .58499148 .35299684 .6329956 .35798646 .70399478H.32199098Z"/>
<path id="font_5_25" d="M.28399659 .70410159C.14399719 .70410159 .041992189 .5511322 .041992189 .34222413 .041992189 .13630677 .14099121-.0146484379 .27598573-.0146484379 .41600038-.0146484379 .5139923 .13130188 .5139923 .33921815 .5139923 .44517518 .49198915 .5331421 .44999696 .6021118 .41099549 .6651001 .34700013 .70410159 .28399659 .70410159M.2769928 .66108706C.30999757 .66108706 .34199525 .6390991 .3659973 .5991211 .3929901 .5531311 .4019928 .49415589 .4019928 .35720826 .4019928 .2172699 .394989 .1512909 .375 .10731506 .35198976 .05833435 .31599427 .02835083 .27799989 .02835083 .24499512 .02835083 .21299744 .050338746 .18899536 .09031677 .16099549 .13729859 .15299988 .2002716 .15299988 .36320497 .15299988 .4791565 .1599884 .538147 .17999268 .5811157 .20298767 .63209536 .23899842 .66108706 .2769928 .66108706Z"/>
<path id="font_2_1" d="M.2649994-1.4599762C.2649994-2.166092 .20999146-2.7681733 .049987794-2.9181977V-2.9501954C.2869873-2.859192 .36299134-2.293106 .36299134-1.4599762 .36299134-.6108551 .2789917-.06877136 .049987794 .030273438V-.0017547608C.21299744-.15177918 .2649994-.770874 .2649994-1.4599762Z"/>
<path id="font_4_48" d="M.084991458 .31092835V.2529297H.33099366V.0068359377H.3889923V.2529297H.6349945V.31092835H.3889923V.5566406H.33099366V.31092835H.084991458Z"/>
<path id="font_5_17" d="M.5049896 .21601868H.46099855L.45098878 .16500855C.43798829 .100997928 .42999269 .09399414 .36799623 .09399414H.14399719C.21299744 .16600037 .23599243 .18701172 .2999878 .23701477 .3909912 .30703736 .42999269 .34204103 .45298768 .3720398 .4850006 .41604615 .5009918 .46105958 .5009918 .5090637 .5009918 .6220856 .4059906 .70410159 .27598573 .70410159 .14898682 .70410159 .050994874 .6220856 .050994874 .5160675 .050994874 .45306397 .08299255 .41004945 .1309967 .41004945 .16799927 .41004945 .19299317 .4350586 .19299317 .47105409 .19299317 .49606324 .1789856 .5190735 .15699768 .5280762 .11999512 .5440674 .117996219 .54507449 .117996219 .55807498 .117996219 .57307437 .12799073 .5960846 .14199829 .6130829 .16699219 .6430969 .20899964 .66108706 .2559967 .66108706 .33799745 .66108706 .3880005 .61009219 .3880005 .5260773 .3880005 .45205689 .35299684 .38504029 .269989 .2970276L.21099854 .23501587C.17599488 .1980133 .1499939 .17001343 .1329956 .15100098 .09700012 .10899353 .07899475 .085998538 .034988405 .027999878V0H.48599244L.5049896 .21601868Z"/>
<path id="font_4_32" d="M.07998657 .28173829C.07998657 .24674988 .10798645 .21875 .14299011 .21875 .17799378 .21875 .20599365 .24674988 .20599365 .28173829 .20599365 .31674195 .17799378 .34474183 .14299011 .34474183 .10798645 .34474183 .07998657 .31674195 .07998657 .28173829Z"/>
<path id="font_2_3" d="M.33699037 .041015626H.13398743V.0030059815C.2559967-.004989624 .2619934-.009979248 .2619934-.19998169V-2.7119904C.2619934-2.9019929 .2559967-2.9129945 .13398743-2.92099V-2.9589844H.33699037V.041015626Z"/>
<path id="font_5_18" d="M.34599305 .3677826C.3600006 .37278749 .3619995 .37278749 .36898805 .37579347 .43899537 .40475465 .47898866 .46063233 .47898866 .5317688 .47898866 .6360321 .39898683 .70410159 .2749939 .70410159 .1579895 .70410159 .068984989 .635025 .068984989 .543808 .068984989 .5027008 .09700012 .4736328 .1349945 .4736328 .16999817 .4736328 .19400025 .49768067 .19400025 .53378298 .19400025 .5548248 .18598938 .5688629 .16299439 .5848999 .15299988 .59191897 .1499939 .5969391 .1499939 .60295107 .1499939 .63101199 .20899964 .66108706 .2649994 .66108706 .33699037 .66108706 .375 .61598208 .375 .5307617 .375 .43766786 .33699037 .38879396 .2649994 .38879396 .2559967 .38879396 .23999024 .38978578 .22499085 .3907776 .21699524 .39178468 .20899964 .39178468 .20298767 .39178468 .18199158 .39178468 .17098999 .38278199 .17098999 .36479188 .17098999 .34779359 .18199158 .33979798 .20199585 .33979798 .20498657 .33979798 .21299744 .33979798 .22599793 .3407898 .2639923 .34179688 .2649994 .34179688 .272995 .34179688 .34700013 .34179688 .3869934 .2888794 .3869934 .19006348 .3869934 .0872345 .33599855 .02835083 .24699402 .02835083 .18399048 .02835083 .115997318 .062286378 .115997318 .0932312 .115997318 .10221863 .117996219 .10420227 .13798523 .1151886 .1659851 .13215637 .1769867 .14912415 .1769867 .17408753 .1769867 .21002198 .1499939 .236969 .11299133 .236969 .070999149 .236969 .041992189 .20103455 .041992189 .14912415 .041992189 .05230713 .1309967-.0146484379 .25898744-.0146484379 .40299989-.0146484379 .49798585 .0652771 .49798585 .18806458 .49798585 .28189088 .44898988 .3387909 .34599305 .3677826Z"/>
</defs>
<g>
<g clip-path="url(#clip_1)">
<use data-text="&#xfffd;" xlink:href="#font_2_2" transform="matrix(8.249,0,0,-8.249,.80000308,1.3155518)"/>
<use data-text="&#xfffd;" xlink:href="#font_2_45" transform="matrix(8.249,0,0,-8.249,5.6091768,1.3155518)"/>
<use data-text="n" xlink:href="#font_3_39" transform="matrix(8.3387,0,0,-8.3387,9.947006,9.610565)"/>
<use data-text="&#x2212;" xlink:href="#font_4_31" transform="matrix(8.2491,0,0,-8.2491,16.226014,9.610565)"/>
<use data-text="1" xlink:href="#font_5_16" transform="matrix(8.3387,0,0,-8.3387,23.257019,9.610565)"/>
<use data-text="0" xlink:href="#font_5_25" transform="matrix(8.3387,0,0,-8.3387,16.468018,21.83258)"/>
<use data-text="&#xfffd;" xlink:href="#font_2_1" transform="matrix(8.249,0,0,-8.249,27.894013,1.3155823)"/>
<use data-text="+" xlink:href="#font_4_48" transform="matrix(8.2491,0,0,-8.2491,33.056016,15.68158)"/>
<use data-text="&#xfffd;" xlink:href="#font_2_45" transform="matrix(8.249,0,0,-8.249,40.088014,1.3155823)"/>
<use data-text="n" xlink:href="#font_3_39" transform="matrix(8.3387,0,0,-8.3387,44.42401,9.611572)"/>
<use data-text="&#x2212;" xlink:href="#font_4_31" transform="matrix(8.2491,0,0,-8.2491,50.70201,9.611572)"/>
<use data-text="2" xlink:href="#font_5_17" transform="matrix(8.3387,0,0,-8.3387,57.73401,9.611572)"/>
<use data-text="1" xlink:href="#font_5_16" transform="matrix(8.3387,0,0,-8.3387,50.944017,21.83258)"/>
<use data-text="&#xfffd;" xlink:href="#font_2_1" transform="matrix(8.249,0,0,-8.249,62.37001,1.3155823)"/>
<use data-text="+" xlink:href="#font_4_48" transform="matrix(8.2491,0,0,-8.2491,67.533008,15.68158)"/>
<use data-text="&#x00b7;" xlink:href="#font_4_32" transform="matrix(8.2491,0,0,-8.2491,74.56123,15.68158)"/>
<use data-text="&#x00b7;" xlink:href="#font_4_32" transform="matrix(8.2491,0,0,-8.2491,77.73714,15.68158)"/>
<use data-text="&#x00b7;" xlink:href="#font_4_32" transform="matrix(8.2491,0,0,-8.2491,80.904788,15.68158)"/>
<use data-text="+" xlink:href="#font_4_48" transform="matrix(8.2491,0,0,-8.2491,84.303409,15.68158)"/>
<use data-text="&#xfffd;" xlink:href="#font_2_45" transform="matrix(8.249,0,0,-8.249,91.33101,1.3155823)"/>
<use data-text="0" xlink:href="#font_5_25" transform="matrix(8.3387,0,0,-8.3387,102.18701,9.611572)"/>
<use data-text="n" xlink:href="#font_3_39" transform="matrix(8.3387,0,0,-8.3387,95.66701,21.83258)"/>
<use data-text="&#x2212;" xlink:href="#font_4_31" transform="matrix(8.2491,0,0,-8.2491,101.94501,21.83258)"/>
<use data-text="1" xlink:href="#font_5_16" transform="matrix(8.3387,0,0,-8.3387,108.977008,21.83258)"/>
<use data-text="&#xfffd;" xlink:href="#font_2_1" transform="matrix(8.249,0,0,-8.249,113.61301,1.3155823)"/>
<use data-text="&#xfffd;" xlink:href="#font_2_3" transform="matrix(8.249,0,0,-8.249,117.67978,1.3155823)"/>
<use data-text="+" xlink:href="#font_4_48" transform="matrix(8.2491,0,0,-8.2491,123.58801,15.68158)"/>
<use data-text="&#xfffd;" xlink:href="#font_2_2" transform="matrix(8.249,0,0,-8.249,130.61902,1.3155823)"/>
<use data-text="&#xfffd;" xlink:href="#font_2_45" transform="matrix(8.249,0,0,-8.249,135.42819,1.3155823)"/>
<use data-text="n" xlink:href="#font_3_39" transform="matrix(8.3387,0,0,-8.3387,139.76703,9.611572)"/>
<use data-text="&#x2212;" xlink:href="#font_4_31" transform="matrix(8.2491,0,0,-8.2491,146.04502,9.611572)"/>
<use data-text="2" xlink:href="#font_5_17" transform="matrix(8.3387,0,0,-8.3387,153.07703,9.611572)"/>
<use data-text="0" xlink:href="#font_5_25" transform="matrix(8.3387,0,0,-8.3387,146.28803,21.83258)"/>
<use data-text="&#xfffd;" xlink:href="#font_2_1" transform="matrix(8.249,0,0,-8.249,157.71302,1.3155823)"/>
<use data-text="+" xlink:href="#font_4_48" transform="matrix(8.2491,0,0,-8.2491,162.876,15.68158)"/>
<use data-text="&#xfffd;" xlink:href="#font_2_45" transform="matrix(8.249,0,0,-8.249,169.90702,1.3155823)"/>
<use data-text="n" xlink:href="#font_3_39" transform="matrix(8.3387,0,0,-8.3387,174.24301,9.611572)"/>
<use data-text="&#x2212;" xlink:href="#font_4_31" transform="matrix(8.2491,0,0,-8.2491,180.522,9.611572)"/>
<use data-text="3" xlink:href="#font_5_18" transform="matrix(8.3387,0,0,-8.3387,187.55301,9.611572)"/>
<use data-text="1" xlink:href="#font_5_16" transform="matrix(8.3387,0,0,-8.3387,180.764,21.83258)"/>
<use data-text="&#xfffd;" xlink:href="#font_2_1" transform="matrix(8.249,0,0,-8.249,192.189,1.3155823)"/>
<use data-text="+" xlink:href="#font_4_48" transform="matrix(8.2491,0,0,-8.2491,197.35199,15.68158)"/>
<use data-text="&#x00b7;" xlink:href="#font_4_32" transform="matrix(8.2491,0,0,-8.2491,204.38022,15.68158)"/>
<use data-text="&#x00b7;" xlink:href="#font_4_32" transform="matrix(8.2491,0,0,-8.2491,207.55612,15.68158)"/>
<use data-text="&#x00b7;" xlink:href="#font_4_32" transform="matrix(8.2491,0,0,-8.2491,210.72376,15.68158)"/>
<use data-text="+" xlink:href="#font_4_48" transform="matrix(8.2491,0,0,-8.2491,214.12238,15.68158)"/>
<use data-text="&#xfffd;" xlink:href="#font_2_45" transform="matrix(8.249,0,0,-8.249,221.151,1.3155823)"/>
<use data-text="0" xlink:href="#font_5_25" transform="matrix(8.3387,0,0,-8.3387,232.00699,9.611572)"/>
<use data-text="n" xlink:href="#font_3_39" transform="matrix(8.3387,0,0,-8.3387,225.486,21.83258)"/>
<use data-text="&#x2212;" xlink:href="#font_4_31" transform="matrix(8.2491,0,0,-8.2491,231.76499,21.83258)"/>
<use data-text="2" xlink:href="#font_5_17" transform="matrix(8.3387,0,0,-8.3387,238.79599,21.83258)"/>
<use data-text="&#xfffd;" xlink:href="#font_2_1" transform="matrix(8.249,0,0,-8.249,243.43299,1.3155823)"/>
<use data-text="&#xfffd;" xlink:href="#font_2_3" transform="matrix(8.249,0,0,-8.249,247.49973,1.3155823)"/>
</g>
</g>
</svg>
