<svg xmlns="http://www.w3.org/2000/svg" xmlns:xlink="http://www.w3.org/1999/xlink" xmlns:inkscape="http://www.inkscape.org/namespaces/inkscape" version="1.1" width="13.644348" height="16.868103" viewBox="0 0 13.644348 16.868103">
<defs>
<clipPath id="clip_1">
<path transform="matrix(1,0,0,-1,-134.55,577.32638)" d="M134.55 560.45828H148.19435V577.32638H134.55Z" clip-rule="evenodd"/>
</clipPath>
<path id="font_2_39" d="M.22898865 .46972657 .04798889 .4547119 .04399109 .41871644H.067993167C.10899353 .41871644 .125 .40971376 .125 .38775636 .125 .37876893 .12199402 .36579896 .115997318 .3438263L.01399231 .00035095216H.100997928L.14199829 .13917542C.16799927 .22602844 .17999268 .25398255 .21598816 .30688478 .25898744 .37078858 .31199647 .40971376 .35499574 .40971376 .37799073 .40971376 .394989 .39175416 .394989 .36878968 .394989 .3518219 .3899994 .32984925 .37998963 .29890443L.32699586 .14317322C.31399537 .10423279 .30899049 .08126831 .30899049 .059310914 .30899049 .017349244 .33898927-.0146484379 .3789978-.0146484379 .44198609-.0146484379 .5059967 .038345338 .56199648 .13517761L.5329895 .15614319C.48298646 .07727051 .43998719 .036346437 .40899659 .036346437 .39898683 .036346437 .3909912 .044326784 .3909912 .05531311 .3909912 .06629944 .3939972 .07827759 .4099884 .12220764L.45700074 .259964C.47299195 .30490113 .48098756 .3438263 .48098756 .37278749 .48098756 .4257202 .43798829 .46972657 .3849945 .46972657 .32598878 .46972657 .2669983 .42671205 .19999695 .33483888L.22898865 .46972657Z"/>
<path id="font_3_38" d="M.19799805-.62597659V.026367188H.1349945V-.62597659H.19799805Z"/>
<path id="font_3_37" d="M.21199036-.72190859C.21199036-.6388855 .2919922-.5808563 .3639984-.57385256V-.54785159C.29299928-.54286196 .21398926-.48188783 .21398926-.39891053 .21398926-.2899475 .23298645-.23997498 .23298645-.121017459 .23298645-.09802246 .23098755-.08302307 .21699524-.058029176 .19099427-.011047363 .1619873 .030944825 .06199646 .030944825V.001953125C.12599182 .0009460449 .15899658-.049041749 .15899658-.11502075L.13598633-.39291383C.13598633-.4099121 .13899231-.42689515 .14299011-.4429016 .1539917-.48088075 .19799805-.54685977 .28599549-.56085208 .19799805-.5708618 .15098572-.6468811 .14099121-.67788699 .13598633-.6929016 .13398743-.7098999 .13398743-.7259064 .13398743-.72891238 .13899231-.7319031 .15699768-1.0059967 .15699768-1.0720215 .12399292-1.1230316 .05999756-1.1240234V-1.1530304C.1599884-1.1530304 .18899536-1.1100311 .21499634-1.0630188 .22898865-1.0380097 .23098755-1.022995 .23098755-.99998477 .23098755-.8809509 .21199036-.8309326 .21199036-.72190859Z"/>
</defs>
<g>
<g clip-path="url(#clip_1)">
<use data-text="n" xlink:href="#font_2_39" transform="matrix(7.0416,0,0,-7.0416,.80000308,6.439331)"/>
<use data-text="&#xfffd;" xlink:href="#font_3_38" transform="matrix(9.1656,0,0,-9.1656,5.673996,1.9763184)"/>
<use data-text="&#xfffd;" xlink:href="#font_3_38" transform="matrix(9.1656,0,0,-9.1656,5.673996,7.475342)"/>
<use data-text="&#xfffd;" xlink:href="#font_3_37" transform="matrix(9.1656,0,0,-9.1656,8.728989,2.3423463)"/>
</g>
</g>
</svg>
